<mxfile host="app.diagrams.net" modified="2024-04-19T18:13:13.558Z" agent="Mozilla/5.0 (Windows NT 10.0; Win64; x64) AppleWebKit/537.36 (KHTML, like Gecko) Chrome/124.0.0.0 Safari/537.36" etag="pz2bcValBS03JuGsIn0u" version="24.2.5" type="device">
  <diagram name="Page-1" id="qLyxjUA_aWYsxz5DzIGW">
    <mxGraphModel dx="3034" dy="2338" grid="0" gridSize="10" guides="1" tooltips="1" connect="1" arrows="1" fold="1" page="0" pageScale="1" pageWidth="1169" pageHeight="827" background="none" math="0" shadow="0">
      <root>
        <mxCell id="0" />
        <mxCell id="1" parent="0" />
        <mxCell id="ySClAHIPyY229D9enXLK-44" style="edgeStyle=none;rounded=0;orthogonalLoop=1;jettySize=auto;html=1;exitX=1;exitY=0;exitDx=0;exitDy=0;entryX=0;entryY=0.5;entryDx=0;entryDy=0;strokeColor=default;" parent="1" source="ySClAHIPyY229D9enXLK-11" target="ySClAHIPyY229D9enXLK-15" edge="1">
          <mxGeometry relative="1" as="geometry" />
        </mxCell>
        <mxCell id="ySClAHIPyY229D9enXLK-47" style="edgeStyle=none;rounded=0;orthogonalLoop=1;jettySize=auto;html=1;exitX=0;exitY=0.5;exitDx=0;exitDy=0;entryX=1;entryY=0.5;entryDx=0;entryDy=0;strokeColor=default;" parent="1" source="ySClAHIPyY229D9enXLK-11" target="ySClAHIPyY229D9enXLK-46" edge="1">
          <mxGeometry relative="1" as="geometry" />
        </mxCell>
        <mxCell id="ySClAHIPyY229D9enXLK-15" value="Name" style="ellipse;whiteSpace=wrap;html=1;strokeColor=default;" parent="1" vertex="1">
          <mxGeometry x="-561" y="-1211" width="120" height="80" as="geometry" />
        </mxCell>
        <mxCell id="ySClAHIPyY229D9enXLK-39" style="edgeStyle=none;rounded=0;orthogonalLoop=1;jettySize=auto;html=1;exitX=0.5;exitY=0;exitDx=0;exitDy=0;entryX=0.5;entryY=1;entryDx=0;entryDy=0;strokeColor=default;" parent="1" source="ySClAHIPyY229D9enXLK-16" target="ySClAHIPyY229D9enXLK-19" edge="1">
          <mxGeometry relative="1" as="geometry" />
        </mxCell>
        <mxCell id="ySClAHIPyY229D9enXLK-40" style="edgeStyle=none;rounded=0;orthogonalLoop=1;jettySize=auto;html=1;exitX=0.75;exitY=0;exitDx=0;exitDy=0;entryX=0;entryY=1;entryDx=0;entryDy=0;strokeColor=default;" parent="1" source="ySClAHIPyY229D9enXLK-11" target="ySClAHIPyY229D9enXLK-21" edge="1">
          <mxGeometry relative="1" as="geometry" />
        </mxCell>
        <mxCell id="ySClAHIPyY229D9enXLK-41" style="edgeStyle=none;rounded=0;orthogonalLoop=1;jettySize=auto;html=1;exitX=0;exitY=0;exitDx=0;exitDy=0;strokeColor=default;" parent="1" source="ySClAHIPyY229D9enXLK-16" target="ySClAHIPyY229D9enXLK-18" edge="1">
          <mxGeometry relative="1" as="geometry" />
        </mxCell>
        <mxCell id="ySClAHIPyY229D9enXLK-16" value="Contacts" style="ellipse;whiteSpace=wrap;html=1;strokeColor=default;" parent="1" vertex="1">
          <mxGeometry x="-771" y="-1211" width="120" height="80" as="geometry" />
        </mxCell>
        <mxCell id="ySClAHIPyY229D9enXLK-18" value="&lt;u&gt;Mobile&lt;/u&gt;" style="ellipse;whiteSpace=wrap;html=1;strokeColor=default;" parent="1" vertex="1">
          <mxGeometry x="-961" y="-1331" width="120" height="80" as="geometry" />
        </mxCell>
        <mxCell id="ySClAHIPyY229D9enXLK-19" value="User_email" style="ellipse;whiteSpace=wrap;html=1;strokeColor=default;" parent="1" vertex="1">
          <mxGeometry x="-781" y="-1351" width="120" height="80" as="geometry" />
        </mxCell>
        <mxCell id="ySClAHIPyY229D9enXLK-21" value="Address" style="ellipse;whiteSpace=wrap;html=1;strokeColor=default;" parent="1" vertex="1">
          <mxGeometry x="-631" y="-1341" width="120" height="80" as="geometry" />
        </mxCell>
        <mxCell id="ySClAHIPyY229D9enXLK-56" style="edgeStyle=none;rounded=0;orthogonalLoop=1;jettySize=auto;html=1;exitX=0;exitY=0.75;exitDx=0;exitDy=0;entryX=1;entryY=0.5;entryDx=0;entryDy=0;" parent="1" source="ySClAHIPyY229D9enXLK-25" target="ySClAHIPyY229D9enXLK-50" edge="1">
          <mxGeometry relative="1" as="geometry" />
        </mxCell>
        <mxCell id="ySClAHIPyY229D9enXLK-68" style="edgeStyle=none;rounded=0;orthogonalLoop=1;jettySize=auto;html=1;exitX=0.5;exitY=1;exitDx=0;exitDy=0;" parent="1" source="ySClAHIPyY229D9enXLK-25" target="ySClAHIPyY229D9enXLK-66" edge="1">
          <mxGeometry relative="1" as="geometry" />
        </mxCell>
        <mxCell id="ySClAHIPyY229D9enXLK-25" value="Doctor" style="rounded=0;whiteSpace=wrap;html=1;" parent="1" vertex="1">
          <mxGeometry x="-1079" y="-737" width="120" height="60" as="geometry" />
        </mxCell>
        <mxCell id="ySClAHIPyY229D9enXLK-75" style="edgeStyle=none;rounded=0;orthogonalLoop=1;jettySize=auto;html=1;entryX=1;entryY=0.5;entryDx=0;entryDy=0;" parent="1" source="ySClAHIPyY229D9enXLK-26" target="ySClAHIPyY229D9enXLK-74" edge="1">
          <mxGeometry relative="1" as="geometry" />
        </mxCell>
        <mxCell id="8r8py_3vkpsushTodgtG-67" style="rounded=0;orthogonalLoop=1;jettySize=auto;html=1;entryX=0;entryY=0.5;entryDx=0;entryDy=0;" parent="1" source="ySClAHIPyY229D9enXLK-26" target="8r8py_3vkpsushTodgtG-66" edge="1">
          <mxGeometry relative="1" as="geometry">
            <Array as="points">
              <mxPoint x="-439" y="-447" />
            </Array>
          </mxGeometry>
        </mxCell>
        <mxCell id="zi4d-5-Muxlm1UTt92Px-5" style="rounded=0;orthogonalLoop=1;jettySize=auto;html=1;" parent="1" source="ySClAHIPyY229D9enXLK-26" target="zi4d-5-Muxlm1UTt92Px-4" edge="1">
          <mxGeometry relative="1" as="geometry" />
        </mxCell>
        <mxCell id="ySClAHIPyY229D9enXLK-59" style="edgeStyle=none;rounded=0;orthogonalLoop=1;jettySize=auto;html=1;exitX=0.25;exitY=1;exitDx=0;exitDy=0;entryX=0;entryY=0.5;entryDx=0;entryDy=0;fontStyle=0;flowAnimation=0;shadow=0;" parent="1" source="ySClAHIPyY229D9enXLK-27" target="ySClAHIPyY229D9enXLK-58" edge="1">
          <mxGeometry relative="1" as="geometry" />
        </mxCell>
        <mxCell id="L6OC26JtuDdvqWB2xsDV-13" style="rounded=0;orthogonalLoop=1;jettySize=auto;html=1;" parent="1" source="ySClAHIPyY229D9enXLK-27" target="L6OC26JtuDdvqWB2xsDV-12" edge="1">
          <mxGeometry relative="1" as="geometry" />
        </mxCell>
        <mxCell id="ySClAHIPyY229D9enXLK-42" style="edgeStyle=none;rounded=0;orthogonalLoop=1;jettySize=auto;html=1;exitX=0.25;exitY=0;exitDx=0;exitDy=0;entryX=0.917;entryY=0.813;entryDx=0;entryDy=0;entryPerimeter=0;strokeColor=default;" parent="1" source="ySClAHIPyY229D9enXLK-11" target="ySClAHIPyY229D9enXLK-14" edge="1">
          <mxGeometry relative="1" as="geometry" />
        </mxCell>
        <mxCell id="ySClAHIPyY229D9enXLK-43" style="edgeStyle=none;rounded=0;orthogonalLoop=1;jettySize=auto;html=1;exitX=0.5;exitY=0;exitDx=0;exitDy=0;entryX=0.425;entryY=1;entryDx=0;entryDy=0;entryPerimeter=0;strokeColor=default;" parent="1" source="ySClAHIPyY229D9enXLK-11" target="ySClAHIPyY229D9enXLK-16" edge="1">
          <mxGeometry relative="1" as="geometry" />
        </mxCell>
        <mxCell id="ySClAHIPyY229D9enXLK-46" value="Age" style="ellipse;whiteSpace=wrap;html=1;strokeColor=default;" parent="1" vertex="1">
          <mxGeometry x="-999" y="-1113" width="120" height="80" as="geometry" />
        </mxCell>
        <mxCell id="ySClAHIPyY229D9enXLK-48" value="" style="group;strokeColor=none;container=0;" parent="1" vertex="1" connectable="0">
          <mxGeometry x="-711" y="-1051" width="120" height="180" as="geometry" />
        </mxCell>
        <mxCell id="ySClAHIPyY229D9enXLK-49" value="" style="group" parent="1" vertex="1" connectable="0">
          <mxGeometry x="-760" y="-1079" width="840" height="1159" as="geometry" />
        </mxCell>
        <mxCell id="ySClAHIPyY229D9enXLK-11" value="Users" style="rounded=0;whiteSpace=wrap;html=1;strokeColor=default;" parent="ySClAHIPyY229D9enXLK-49" vertex="1">
          <mxGeometry width="120" height="60" as="geometry" />
        </mxCell>
        <mxCell id="ySClAHIPyY229D9enXLK-12" value="" style="shape=link;html=1;rounded=0;width=8;strokeColor=default;" parent="ySClAHIPyY229D9enXLK-49" edge="1">
          <mxGeometry width="100" relative="1" as="geometry">
            <mxPoint x="59.5" y="60" as="sourcePoint" />
            <mxPoint x="59.5" y="130" as="targetPoint" />
          </mxGeometry>
        </mxCell>
        <mxCell id="ySClAHIPyY229D9enXLK-13" value="d" style="ellipse;whiteSpace=wrap;html=1;aspect=fixed;strokeColor=default;" parent="ySClAHIPyY229D9enXLK-49" vertex="1">
          <mxGeometry x="35" y="130" width="50" height="50" as="geometry" />
        </mxCell>
        <mxCell id="ySClAHIPyY229D9enXLK-50" value="Fee" style="ellipse;whiteSpace=wrap;html=1;" parent="1" vertex="1">
          <mxGeometry x="-1318" y="-694" width="120" height="80" as="geometry" />
        </mxCell>
        <mxCell id="ySClAHIPyY229D9enXLK-51" value="Specialization" style="ellipse;whiteSpace=wrap;html=1;" parent="1" vertex="1">
          <mxGeometry x="-1323" y="-789" width="120" height="80" as="geometry" />
        </mxCell>
        <mxCell id="ySClAHIPyY229D9enXLK-52" style="edgeStyle=orthogonalEdgeStyle;rounded=0;orthogonalLoop=1;jettySize=auto;html=1;entryX=0.5;entryY=0;entryDx=0;entryDy=0;exitX=0;exitY=1;exitDx=0;exitDy=0;" parent="1" source="ySClAHIPyY229D9enXLK-13" target="ySClAHIPyY229D9enXLK-25" edge="1">
          <mxGeometry relative="1" as="geometry">
            <mxPoint x="-700" y="-900" as="sourcePoint" />
          </mxGeometry>
        </mxCell>
        <mxCell id="ySClAHIPyY229D9enXLK-54" style="rounded=0;orthogonalLoop=1;jettySize=auto;html=1;exitX=1;exitY=0.5;exitDx=0;exitDy=0;entryX=0.5;entryY=0;entryDx=0;entryDy=0;elbow=vertical;edgeStyle=orthogonalEdgeStyle;" parent="1" source="ySClAHIPyY229D9enXLK-13" target="ySClAHIPyY229D9enXLK-27" edge="1">
          <mxGeometry relative="1" as="geometry" />
        </mxCell>
        <mxCell id="ySClAHIPyY229D9enXLK-55" style="edgeStyle=none;rounded=0;orthogonalLoop=1;jettySize=auto;html=1;exitX=0;exitY=0.25;exitDx=0;exitDy=0;entryX=0.983;entryY=0.588;entryDx=0;entryDy=0;entryPerimeter=0;" parent="1" source="ySClAHIPyY229D9enXLK-25" target="ySClAHIPyY229D9enXLK-51" edge="1">
          <mxGeometry relative="1" as="geometry" />
        </mxCell>
        <mxCell id="ySClAHIPyY229D9enXLK-57" style="rounded=0;orthogonalLoop=1;jettySize=auto;html=1;exitX=0.5;exitY=1;exitDx=0;exitDy=0;entryX=0.5;entryY=0;entryDx=0;entryDy=0;" parent="1" source="ySClAHIPyY229D9enXLK-13" target="ySClAHIPyY229D9enXLK-26" edge="1">
          <mxGeometry relative="1" as="geometry" />
        </mxCell>
        <mxCell id="ySClAHIPyY229D9enXLK-60" style="edgeStyle=none;rounded=0;orthogonalLoop=1;jettySize=auto;html=1;exitX=1;exitY=0.5;exitDx=0;exitDy=0;entryX=0.75;entryY=1;entryDx=0;entryDy=0;" parent="1" source="ySClAHIPyY229D9enXLK-58" target="ySClAHIPyY229D9enXLK-27" edge="1">
          <mxGeometry relative="1" as="geometry" />
        </mxCell>
        <mxCell id="ySClAHIPyY229D9enXLK-58" value="Supervise" style="rhombus;whiteSpace=wrap;html=1;" parent="1" vertex="1">
          <mxGeometry x="-421" y="-615" width="80" height="80" as="geometry" />
        </mxCell>
        <mxCell id="ySClAHIPyY229D9enXLK-72" style="edgeStyle=none;rounded=0;orthogonalLoop=1;jettySize=auto;html=1;exitX=0.5;exitY=1;exitDx=0;exitDy=0;entryX=0.5;entryY=0;entryDx=0;entryDy=0;" parent="1" source="ySClAHIPyY229D9enXLK-64" target="ySClAHIPyY229D9enXLK-71" edge="1">
          <mxGeometry relative="1" as="geometry" />
        </mxCell>
        <mxCell id="ySClAHIPyY229D9enXLK-73" style="edgeStyle=none;rounded=0;orthogonalLoop=1;jettySize=auto;html=1;exitX=0.75;exitY=1;exitDx=0;exitDy=0;entryX=0.5;entryY=0;entryDx=0;entryDy=0;" parent="1" source="ySClAHIPyY229D9enXLK-64" target="ySClAHIPyY229D9enXLK-70" edge="1">
          <mxGeometry relative="1" as="geometry" />
        </mxCell>
        <mxCell id="8r8py_3vkpsushTodgtG-6" style="edgeStyle=orthogonalEdgeStyle;rounded=0;orthogonalLoop=1;jettySize=auto;html=1;entryX=1;entryY=0.5;entryDx=0;entryDy=0;" parent="1" source="ySClAHIPyY229D9enXLK-64" target="8r8py_3vkpsushTodgtG-4" edge="1">
          <mxGeometry relative="1" as="geometry" />
        </mxCell>
        <mxCell id="ySClAHIPyY229D9enXLK-64" value="Appointments" style="shape=ext;double=1;rounded=0;whiteSpace=wrap;html=1;" parent="1" vertex="1">
          <mxGeometry x="-1129" y="-433" width="120" height="80" as="geometry" />
        </mxCell>
        <mxCell id="ySClAHIPyY229D9enXLK-67" value="" style="group" parent="1" vertex="1" connectable="0">
          <mxGeometry x="-1081" y="-615" width="120" height="120" as="geometry" />
        </mxCell>
        <mxCell id="ySClAHIPyY229D9enXLK-65" value="" style="rhombus;whiteSpace=wrap;html=1;fontStyle=0" parent="ySClAHIPyY229D9enXLK-67" vertex="1">
          <mxGeometry x="20" y="20" width="80" height="80" as="geometry" />
        </mxCell>
        <mxCell id="ySClAHIPyY229D9enXLK-66" value="Has" style="rhombus;whiteSpace=wrap;html=1;fontStyle=0;fillColor=none;" parent="ySClAHIPyY229D9enXLK-67" vertex="1">
          <mxGeometry width="120" height="120" as="geometry" />
        </mxCell>
        <mxCell id="ySClAHIPyY229D9enXLK-69" style="edgeStyle=none;rounded=0;orthogonalLoop=1;jettySize=auto;html=1;exitX=0.5;exitY=1;exitDx=0;exitDy=0;" parent="1" source="ySClAHIPyY229D9enXLK-66" target="ySClAHIPyY229D9enXLK-64" edge="1">
          <mxGeometry relative="1" as="geometry" />
        </mxCell>
        <mxCell id="ySClAHIPyY229D9enXLK-70" value="Time" style="ellipse;whiteSpace=wrap;html=1;" parent="1" vertex="1">
          <mxGeometry x="-1054" y="-296" width="120" height="80" as="geometry" />
        </mxCell>
        <mxCell id="ySClAHIPyY229D9enXLK-71" value="&lt;u&gt;Doctor_id&lt;/u&gt;" style="ellipse;whiteSpace=wrap;html=1;dashed=1;dashPattern=12 12;" parent="1" vertex="1">
          <mxGeometry x="-1219" y="-305" width="120" height="80" as="geometry" />
        </mxCell>
        <mxCell id="ySClAHIPyY229D9enXLK-76" style="edgeStyle=none;rounded=0;orthogonalLoop=1;jettySize=auto;html=1;exitX=0;exitY=0.5;exitDx=0;exitDy=0;entryX=1;entryY=0.5;entryDx=0;entryDy=0;" parent="1" source="ySClAHIPyY229D9enXLK-74" target="ySClAHIPyY229D9enXLK-64" edge="1">
          <mxGeometry relative="1" as="geometry" />
        </mxCell>
        <mxCell id="ySClAHIPyY229D9enXLK-74" value="Can_Book" style="rhombus;whiteSpace=wrap;html=1;" parent="1" vertex="1">
          <mxGeometry x="-908" y="-575" width="80" height="80" as="geometry" />
        </mxCell>
        <mxCell id="ySClAHIPyY229D9enXLK-92" style="edgeStyle=none;rounded=0;orthogonalLoop=1;jettySize=auto;html=1;entryX=0.5;entryY=0;entryDx=0;entryDy=0;exitX=0;exitY=0.75;exitDx=0;exitDy=0;" parent="1" source="ySClAHIPyY229D9enXLK-85" target="ySClAHIPyY229D9enXLK-86" edge="1">
          <mxGeometry relative="1" as="geometry" />
        </mxCell>
        <mxCell id="ySClAHIPyY229D9enXLK-93" style="edgeStyle=none;rounded=0;orthogonalLoop=1;jettySize=auto;html=1;exitX=0.25;exitY=1;exitDx=0;exitDy=0;entryX=0.5;entryY=0;entryDx=0;entryDy=0;" parent="1" source="ySClAHIPyY229D9enXLK-85" target="ySClAHIPyY229D9enXLK-88" edge="1">
          <mxGeometry relative="1" as="geometry" />
        </mxCell>
        <mxCell id="ySClAHIPyY229D9enXLK-94" style="edgeStyle=none;rounded=0;orthogonalLoop=1;jettySize=auto;html=1;exitX=0.5;exitY=1;exitDx=0;exitDy=0;entryX=0.5;entryY=0;entryDx=0;entryDy=0;" parent="1" source="ySClAHIPyY229D9enXLK-85" target="ySClAHIPyY229D9enXLK-87" edge="1">
          <mxGeometry relative="1" as="geometry" />
        </mxCell>
        <mxCell id="ySClAHIPyY229D9enXLK-85" value="Ambulance" style="rounded=0;whiteSpace=wrap;html=1;" parent="1" vertex="1">
          <mxGeometry x="-297" y="-189" width="120" height="50" as="geometry" />
        </mxCell>
        <mxCell id="ySClAHIPyY229D9enXLK-86" value="&lt;u&gt;ID&lt;/u&gt;" style="ellipse;whiteSpace=wrap;html=1;" parent="1" vertex="1">
          <mxGeometry x="-487" y="-99" width="120" height="80" as="geometry" />
        </mxCell>
        <mxCell id="ySClAHIPyY229D9enXLK-87" value="Coverage Areas" style="ellipse;whiteSpace=wrap;html=1;" parent="1" vertex="1">
          <mxGeometry x="-197" y="-89" width="120" height="80" as="geometry" />
        </mxCell>
        <mxCell id="ySClAHIPyY229D9enXLK-88" value="Cost" style="ellipse;whiteSpace=wrap;html=1;" parent="1" vertex="1">
          <mxGeometry x="-337" y="-79" width="120" height="80" as="geometry" />
        </mxCell>
        <mxCell id="ySClAHIPyY229D9enXLK-91" style="edgeStyle=none;rounded=0;orthogonalLoop=1;jettySize=auto;html=1;exitX=0.5;exitY=1;exitDx=0;exitDy=0;entryX=0.417;entryY=0;entryDx=0;entryDy=0;entryPerimeter=0;" parent="1" source="ySClAHIPyY229D9enXLK-89" target="ySClAHIPyY229D9enXLK-85" edge="1">
          <mxGeometry relative="1" as="geometry" />
        </mxCell>
        <mxCell id="ySClAHIPyY229D9enXLK-89" value="Can_book" style="rhombus;whiteSpace=wrap;html=1;" parent="1" vertex="1">
          <mxGeometry x="-596" y="-318" width="80" height="80" as="geometry" />
        </mxCell>
        <mxCell id="ySClAHIPyY229D9enXLK-90" style="edgeStyle=none;rounded=0;orthogonalLoop=1;jettySize=auto;html=1;entryX=0.5;entryY=0;entryDx=0;entryDy=0;exitX=0.75;exitY=1;exitDx=0;exitDy=0;" parent="1" source="ySClAHIPyY229D9enXLK-26" target="ySClAHIPyY229D9enXLK-89" edge="1">
          <mxGeometry relative="1" as="geometry">
            <mxPoint x="-425" y="-423" as="sourcePoint" />
          </mxGeometry>
        </mxCell>
        <mxCell id="L6OC26JtuDdvqWB2xsDV-7" value="" style="endArrow=none;html=1;rounded=0;" parent="1" edge="1">
          <mxGeometry width="50" height="50" relative="1" as="geometry">
            <mxPoint x="-758" y="-1301.5" as="sourcePoint" />
            <mxPoint x="-684" y="-1301.5" as="targetPoint" />
          </mxGeometry>
        </mxCell>
        <mxCell id="L6OC26JtuDdvqWB2xsDV-12" value="Salary" style="ellipse;whiteSpace=wrap;html=1;" parent="1" vertex="1">
          <mxGeometry x="-591" y="-700" width="95" height="52" as="geometry" />
        </mxCell>
        <mxCell id="8r8py_3vkpsushTodgtG-4" value="Availability/Status" style="ellipse;whiteSpace=wrap;html=1;" parent="1" vertex="1">
          <mxGeometry x="-1303" y="-433" width="120" height="80" as="geometry" />
        </mxCell>
        <mxCell id="8r8py_3vkpsushTodgtG-32" style="edgeStyle=orthogonalEdgeStyle;rounded=0;orthogonalLoop=1;jettySize=auto;html=1;entryX=0;entryY=0;entryDx=0;entryDy=0;strokeWidth=3;fillColor=#0050ef;strokeColor=#001DBC;" parent="1" source="8r8py_3vkpsushTodgtG-7" target="8r8py_3vkpsushTodgtG-11" edge="1">
          <mxGeometry relative="1" as="geometry">
            <Array as="points">
              <mxPoint x="-1152" y="-830" />
              <mxPoint x="-888" y="-830" />
            </Array>
          </mxGeometry>
        </mxCell>
        <mxCell id="8r8py_3vkpsushTodgtG-7" value="Admin" style="rounded=0;whiteSpace=wrap;html=1;strokeWidth=2;" parent="1" vertex="1">
          <mxGeometry x="-1203" y="-1003" width="120" height="60" as="geometry" />
        </mxCell>
        <mxCell id="8r8py_3vkpsushTodgtG-16" style="edgeStyle=orthogonalEdgeStyle;rounded=0;orthogonalLoop=1;jettySize=auto;html=1;entryX=0.75;entryY=0;entryDx=0;entryDy=0;strokeWidth=3;fillColor=#0050ef;strokeColor=#001DBC;" parent="1" source="8r8py_3vkpsushTodgtG-11" target="ySClAHIPyY229D9enXLK-25" edge="1">
          <mxGeometry relative="1" as="geometry" />
        </mxCell>
        <mxCell id="8r8py_3vkpsushTodgtG-17" style="edgeStyle=orthogonalEdgeStyle;rounded=0;orthogonalLoop=1;jettySize=auto;html=1;entryX=0.75;entryY=0;entryDx=0;entryDy=0;strokeWidth=3;fillColor=#0050ef;strokeColor=#001DBC;" parent="1" source="8r8py_3vkpsushTodgtG-11" target="ySClAHIPyY229D9enXLK-27" edge="1">
          <mxGeometry relative="1" as="geometry" />
        </mxCell>
        <mxCell id="8r8py_3vkpsushTodgtG-18" style="rounded=0;orthogonalLoop=1;jettySize=auto;html=1;exitX=0.5;exitY=1;exitDx=0;exitDy=0;strokeWidth=3;fillColor=#0050ef;strokeColor=#001DBC;edgeStyle=orthogonalEdgeStyle;" parent="1" source="8r8py_3vkpsushTodgtG-11" target="ySClAHIPyY229D9enXLK-26" edge="1">
          <mxGeometry relative="1" as="geometry">
            <mxPoint x="-829" y="-646" as="targetPoint" />
            <Array as="points">
              <mxPoint x="-868" y="-683" />
            </Array>
          </mxGeometry>
        </mxCell>
        <mxCell id="zi4d-5-Muxlm1UTt92Px-1" style="rounded=0;orthogonalLoop=1;jettySize=auto;html=1;exitX=1;exitY=1;exitDx=0;exitDy=0;entryX=0.75;entryY=0;entryDx=0;entryDy=0;strokeWidth=3;fillColor=#0050ef;strokeColor=#001DBC;" parent="1" source="8r8py_3vkpsushTodgtG-11" target="ySClAHIPyY229D9enXLK-85" edge="1">
          <mxGeometry relative="1" as="geometry" />
        </mxCell>
        <mxCell id="zi4d-5-Muxlm1UTt92Px-2" style="rounded=0;orthogonalLoop=1;jettySize=auto;html=1;exitX=1;exitY=0;exitDx=0;exitDy=0;entryX=0;entryY=0.75;entryDx=0;entryDy=0;strokeWidth=3;fillColor=#0050ef;strokeColor=#001DBC;" parent="1" source="8r8py_3vkpsushTodgtG-11" target="8r8py_3vkpsushTodgtG-34" edge="1">
          <mxGeometry relative="1" as="geometry" />
        </mxCell>
        <mxCell id="zi4d-5-Muxlm1UTt92Px-3" style="rounded=0;orthogonalLoop=1;jettySize=auto;html=1;exitX=1;exitY=1;exitDx=0;exitDy=0;entryX=0;entryY=0.25;entryDx=0;entryDy=0;strokeWidth=3;fillColor=#0050ef;strokeColor=#001DBC;" parent="1" source="8r8py_3vkpsushTodgtG-11" target="8r8py_3vkpsushTodgtG-48" edge="1">
          <mxGeometry relative="1" as="geometry" />
        </mxCell>
        <mxCell id="BxjsxsyBaetmEyTTX3Pv-1" style="rounded=0;orthogonalLoop=1;jettySize=auto;html=1;entryX=0.007;entryY=0.891;entryDx=0;entryDy=0;exitX=1;exitY=0.5;exitDx=0;exitDy=0;entryPerimeter=0;fillColor=#0050ef;strokeColor=#001DBC;strokeWidth=3;" parent="1" source="8r8py_3vkpsushTodgtG-11" target="8r8py_3vkpsushTodgtG-61" edge="1">
          <mxGeometry relative="1" as="geometry" />
        </mxCell>
        <mxCell id="8r8py_3vkpsushTodgtG-11" value="Manages" style="rhombus;whiteSpace=wrap;html=1;" parent="1" vertex="1">
          <mxGeometry x="-908" y="-832" width="80" height="80" as="geometry" />
        </mxCell>
        <mxCell id="8r8py_3vkpsushTodgtG-14" style="rounded=0;orthogonalLoop=1;jettySize=auto;html=1;entryX=1;entryY=0.75;entryDx=0;entryDy=0;" parent="1" source="ySClAHIPyY229D9enXLK-13" target="8r8py_3vkpsushTodgtG-7" edge="1">
          <mxGeometry relative="1" as="geometry" />
        </mxCell>
        <mxCell id="8r8py_3vkpsushTodgtG-29" style="rounded=0;orthogonalLoop=1;jettySize=auto;html=1;exitX=0.5;exitY=1;exitDx=0;exitDy=0;" parent="1" source="zi4d-5-Muxlm1UTt92Px-4" target="8r8py_3vkpsushTodgtG-22" edge="1">
          <mxGeometry relative="1" as="geometry">
            <mxPoint x="-901.4255319148938" y="-48" as="sourcePoint" />
          </mxGeometry>
        </mxCell>
        <mxCell id="8r8py_3vkpsushTodgtG-30" style="rounded=0;orthogonalLoop=1;jettySize=auto;html=1;exitX=0;exitY=1;exitDx=0;exitDy=0;" parent="1" source="zi4d-5-Muxlm1UTt92Px-4" target="8r8py_3vkpsushTodgtG-23" edge="1">
          <mxGeometry relative="1" as="geometry">
            <mxPoint x="-932.8279569892475" y="-48" as="sourcePoint" />
          </mxGeometry>
        </mxCell>
        <mxCell id="8r8py_3vkpsushTodgtG-22" value="DATE" style="ellipse;whiteSpace=wrap;html=1;" parent="1" vertex="1">
          <mxGeometry x="-699" y="-520" width="81" height="34" as="geometry" />
        </mxCell>
        <mxCell id="8r8py_3vkpsushTodgtG-23" value="Disease/Problem" style="ellipse;whiteSpace=wrap;html=1;" parent="1" vertex="1">
          <mxGeometry x="-814" y="-535" width="110" height="49" as="geometry" />
        </mxCell>
        <mxCell id="8r8py_3vkpsushTodgtG-40" style="rounded=0;orthogonalLoop=1;jettySize=auto;html=1;entryX=0.5;entryY=1;entryDx=0;entryDy=0;" parent="1" source="8r8py_3vkpsushTodgtG-34" target="8r8py_3vkpsushTodgtG-35" edge="1">
          <mxGeometry relative="1" as="geometry" />
        </mxCell>
        <mxCell id="8r8py_3vkpsushTodgtG-41" style="rounded=0;orthogonalLoop=1;jettySize=auto;html=1;entryX=0.5;entryY=1;entryDx=0;entryDy=0;" parent="1" source="8r8py_3vkpsushTodgtG-34" target="8r8py_3vkpsushTodgtG-36" edge="1">
          <mxGeometry relative="1" as="geometry" />
        </mxCell>
        <mxCell id="8r8py_3vkpsushTodgtG-42" style="rounded=0;orthogonalLoop=1;jettySize=auto;html=1;entryX=0.5;entryY=1;entryDx=0;entryDy=0;" parent="1" source="8r8py_3vkpsushTodgtG-34" target="8r8py_3vkpsushTodgtG-38" edge="1">
          <mxGeometry relative="1" as="geometry" />
        </mxCell>
        <mxCell id="8r8py_3vkpsushTodgtG-47" style="rounded=0;orthogonalLoop=1;jettySize=auto;html=1;" parent="1" source="8r8py_3vkpsushTodgtG-34" target="8r8py_3vkpsushTodgtG-46" edge="1">
          <mxGeometry relative="1" as="geometry" />
        </mxCell>
        <mxCell id="8r8py_3vkpsushTodgtG-34" value="Hospital" style="rounded=0;whiteSpace=wrap;html=1;" parent="1" vertex="1">
          <mxGeometry x="-82" y="-1079" width="120" height="60" as="geometry" />
        </mxCell>
        <mxCell id="8r8py_3vkpsushTodgtG-35" value="&lt;u&gt;Hospital_ID&lt;/u&gt;" style="ellipse;whiteSpace=wrap;html=1;" parent="1" vertex="1">
          <mxGeometry x="-255" y="-1222" width="120" height="80" as="geometry" />
        </mxCell>
        <mxCell id="8r8py_3vkpsushTodgtG-36" value="Name" style="ellipse;whiteSpace=wrap;html=1;" parent="1" vertex="1">
          <mxGeometry x="-113" y="-1241" width="120" height="80" as="geometry" />
        </mxCell>
        <mxCell id="8r8py_3vkpsushTodgtG-38" value="Branches/Location" style="ellipse;shape=doubleEllipse;whiteSpace=wrap;html=1;" parent="1" vertex="1">
          <mxGeometry x="61.33" y="-1200" width="123.33" height="74" as="geometry" />
        </mxCell>
        <mxCell id="8r8py_3vkpsushTodgtG-49" style="rounded=0;orthogonalLoop=1;jettySize=auto;html=1;" parent="1" source="8r8py_3vkpsushTodgtG-46" target="8r8py_3vkpsushTodgtG-48" edge="1">
          <mxGeometry relative="1" as="geometry" />
        </mxCell>
        <mxCell id="8r8py_3vkpsushTodgtG-46" value="Has" style="rhombus;whiteSpace=wrap;html=1;" parent="1" vertex="1">
          <mxGeometry x="-55" y="-902" width="80" height="80" as="geometry" />
        </mxCell>
        <mxCell id="8r8py_3vkpsushTodgtG-52" style="rounded=0;orthogonalLoop=1;jettySize=auto;html=1;" parent="1" source="8r8py_3vkpsushTodgtG-48" target="8r8py_3vkpsushTodgtG-51" edge="1">
          <mxGeometry relative="1" as="geometry" />
        </mxCell>
        <mxCell id="zi4d-5-Muxlm1UTt92Px-7" style="rounded=0;orthogonalLoop=1;jettySize=auto;html=1;" parent="1" source="8r8py_3vkpsushTodgtG-48" target="zi4d-5-Muxlm1UTt92Px-6" edge="1">
          <mxGeometry relative="1" as="geometry" />
        </mxCell>
        <mxCell id="8r8py_3vkpsushTodgtG-48" value="Blood_Bank" style="rounded=0;whiteSpace=wrap;html=1;" parent="1" vertex="1">
          <mxGeometry x="-98" y="-752" width="120" height="60" as="geometry" />
        </mxCell>
        <mxCell id="2msbxIjYs5mI3vQhX9Ai-2" value="" style="rounded=0;orthogonalLoop=1;jettySize=auto;html=1;" parent="1" source="8r8py_3vkpsushTodgtG-51" target="2msbxIjYs5mI3vQhX9Ai-1" edge="1">
          <mxGeometry relative="1" as="geometry" />
        </mxCell>
        <mxCell id="8r8py_3vkpsushTodgtG-51" value="Blood Groups" style="ellipse;shape=doubleEllipse;whiteSpace=wrap;html=1;" parent="1" vertex="1">
          <mxGeometry x="-91" y="-635" width="100" height="60" as="geometry" />
        </mxCell>
        <mxCell id="8r8py_3vkpsushTodgtG-64" style="rounded=0;orthogonalLoop=1;jettySize=auto;html=1;entryX=0.5;entryY=0;entryDx=0;entryDy=0;" parent="1" source="8r8py_3vkpsushTodgtG-61" target="8r8py_3vkpsushTodgtG-63" edge="1">
          <mxGeometry relative="1" as="geometry" />
        </mxCell>
        <mxCell id="8r8py_3vkpsushTodgtG-61" value="Others/Normal Users" style="rounded=0;whiteSpace=wrap;html=1;" parent="1" vertex="1">
          <mxGeometry x="-297" y="-940" width="147" height="64" as="geometry" />
        </mxCell>
        <mxCell id="8r8py_3vkpsushTodgtG-62" style="rounded=0;orthogonalLoop=1;jettySize=auto;html=1;entryX=0;entryY=0.5;entryDx=0;entryDy=0;" parent="1" source="ySClAHIPyY229D9enXLK-13" target="8r8py_3vkpsushTodgtG-61" edge="1">
          <mxGeometry relative="1" as="geometry">
            <Array as="points">
              <mxPoint x="-483" y="-987" />
            </Array>
          </mxGeometry>
        </mxCell>
        <mxCell id="8r8py_3vkpsushTodgtG-65" style="rounded=0;orthogonalLoop=1;jettySize=auto;html=1;entryX=0;entryY=0.5;entryDx=0;entryDy=0;" parent="1" source="8r8py_3vkpsushTodgtG-63" target="8r8py_3vkpsushTodgtG-48" edge="1">
          <mxGeometry relative="1" as="geometry" />
        </mxCell>
        <mxCell id="8r8py_3vkpsushTodgtG-63" value="&lt;div style=&quot;font-size: 14px;&quot;&gt;&lt;font style=&quot;font-size: 14px;&quot;&gt;Can&lt;/font&gt;&lt;/div&gt;&lt;font style=&quot;font-size: 14px;&quot;&gt;Donate&lt;/font&gt;&lt;div style=&quot;font-size: 14px;&quot;&gt;&lt;font style=&quot;font-size: 14px;&quot;&gt;Blood&lt;/font&gt;&lt;/div&gt;" style="rhombus;whiteSpace=wrap;html=1;" parent="1" vertex="1">
          <mxGeometry x="-297" y="-720" width="94" height="92" as="geometry" />
        </mxCell>
        <mxCell id="8r8py_3vkpsushTodgtG-68" style="rounded=0;orthogonalLoop=1;jettySize=auto;html=1;entryX=0;entryY=0.75;entryDx=0;entryDy=0;" parent="1" source="8r8py_3vkpsushTodgtG-66" target="8r8py_3vkpsushTodgtG-48" edge="1">
          <mxGeometry relative="1" as="geometry" />
        </mxCell>
        <mxCell id="8r8py_3vkpsushTodgtG-66" value="&lt;font style=&quot;font-size: 14px;&quot;&gt;Can Receive&lt;/font&gt;&lt;div style=&quot;font-size: 14px;&quot;&gt;&lt;font style=&quot;font-size: 14px;&quot;&gt;Blood&lt;/font&gt;&lt;/div&gt;" style="rhombus;whiteSpace=wrap;html=1;" parent="1" vertex="1">
          <mxGeometry x="-388" y="-483" width="119" height="119" as="geometry" />
        </mxCell>
        <mxCell id="ySClAHIPyY229D9enXLK-14" value="User_id" style="ellipse;whiteSpace=wrap;html=1;strokeColor=default;" parent="1" vertex="1">
          <mxGeometry x="-934" y="-1222" width="120" height="80" as="geometry" />
        </mxCell>
        <mxCell id="L6OC26JtuDdvqWB2xsDV-8" value="" style="endArrow=none;html=1;rounded=0;" parent="1" edge="1">
          <mxGeometry width="50" height="50" relative="1" as="geometry">
            <mxPoint x="-911" y="-1170" as="sourcePoint" />
            <mxPoint x="-837" y="-1170" as="targetPoint" />
          </mxGeometry>
        </mxCell>
        <mxCell id="zi4d-5-Muxlm1UTt92Px-4" value="Medical Record" style="ellipse;whiteSpace=wrap;html=1;" parent="1" vertex="1">
          <mxGeometry x="-766" y="-594.5" width="105" height="53" as="geometry" />
        </mxCell>
        <mxCell id="zi4d-5-Muxlm1UTt92Px-6" value="&lt;u&gt;Bloodbank_id&lt;/u&gt;" style="ellipse;whiteSpace=wrap;html=1;" parent="1" vertex="1">
          <mxGeometry x="166" y="-787" width="120" height="80" as="geometry" />
        </mxCell>
        <mxCell id="K_1ZKpOjZZYrOFly8--a-1" value="&lt;font style=&quot;font-size: 14px;&quot;&gt;Supervisor&lt;/font&gt;" style="text;strokeColor=none;fillColor=none;html=1;fontSize=24;fontStyle=1;verticalAlign=middle;align=center;rotation=-100;" parent="1" vertex="1">
          <mxGeometry x="-509" y="-662" width="111" height="57" as="geometry" />
        </mxCell>
        <mxCell id="K_1ZKpOjZZYrOFly8--a-4" value="&lt;font style=&quot;font-size: 14px;&quot;&gt;Supervisee&lt;/font&gt;" style="text;strokeColor=none;fillColor=none;html=1;fontSize=24;fontStyle=1;verticalAlign=middle;align=center;rotation=-110;" parent="1" vertex="1">
          <mxGeometry x="-412" y="-677" width="111" height="57" as="geometry" />
        </mxCell>
        <mxCell id="K_1ZKpOjZZYrOFly8--a-5" value="1" style="text;strokeColor=none;fillColor=none;html=1;fontSize=12;fontStyle=0;verticalAlign=middle;align=center;" parent="1" vertex="1">
          <mxGeometry x="-59" y="-973" width="100" height="40" as="geometry" />
        </mxCell>
        <mxCell id="K_1ZKpOjZZYrOFly8--a-6" value="1" style="text;strokeColor=none;fillColor=none;html=1;fontSize=12;fontStyle=0;verticalAlign=middle;align=center;" parent="1" vertex="1">
          <mxGeometry x="-68" y="-818" width="100" height="40" as="geometry" />
        </mxCell>
        <mxCell id="ySClAHIPyY229D9enXLK-26" value="Patient" style="rounded=0;whiteSpace=wrap;html=1;strokeColor=default;" parent="1" vertex="1">
          <mxGeometry x="-755" y="-727" width="110" height="60" as="geometry" />
        </mxCell>
        <mxCell id="ySClAHIPyY229D9enXLK-27" value="Staff" style="rounded=0;whiteSpace=wrap;html=1;" parent="1" vertex="1">
          <mxGeometry x="-477" y="-769" width="120" height="60" as="geometry" />
        </mxCell>
        <mxCell id="K_1ZKpOjZZYrOFly8--a-7" value="n" style="text;strokeColor=none;fillColor=none;html=1;fontSize=12;fontStyle=0;verticalAlign=middle;align=center;" parent="1" vertex="1">
          <mxGeometry x="-277" y="-841" width="100" height="40" as="geometry" />
        </mxCell>
        <mxCell id="K_1ZKpOjZZYrOFly8--a-8" value="1" style="text;strokeColor=none;fillColor=none;html=1;fontSize=12;fontStyle=0;verticalAlign=middle;align=center;rotation=-30;" parent="1" vertex="1">
          <mxGeometry x="-235" y="-727" width="100" height="40" as="geometry" />
        </mxCell>
        <mxCell id="K_1ZKpOjZZYrOFly8--a-9" value="1" style="text;strokeColor=none;fillColor=none;html=1;fontSize=12;fontStyle=0;verticalAlign=middle;align=center;" parent="1" vertex="1">
          <mxGeometry x="-481" y="-674" width="100" height="40" as="geometry" />
        </mxCell>
        <mxCell id="K_1ZKpOjZZYrOFly8--a-10" value="n" style="text;strokeColor=none;fillColor=none;html=1;fontSize=12;fontStyle=0;verticalAlign=middle;align=center;rotation=45;" parent="1" vertex="1">
          <mxGeometry x="-355" y="-311" width="100" height="40" as="geometry" />
        </mxCell>
        <mxCell id="K_1ZKpOjZZYrOFly8--a-11" value="n" style="text;strokeColor=none;fillColor=none;html=1;fontSize=12;fontStyle=0;verticalAlign=middle;align=center;" parent="1" vertex="1">
          <mxGeometry x="-423" y="-668" width="100" height="40" as="geometry" />
        </mxCell>
        <mxCell id="K_1ZKpOjZZYrOFly8--a-12" value="1" style="text;strokeColor=none;fillColor=none;html=1;fontSize=12;fontStyle=0;verticalAlign=middle;align=center;" parent="1" vertex="1">
          <mxGeometry x="-293" y="-535" width="100" height="40" as="geometry" />
        </mxCell>
        <mxCell id="K_1ZKpOjZZYrOFly8--a-13" value="m" style="text;strokeColor=none;fillColor=none;html=1;fontSize=12;fontStyle=0;verticalAlign=middle;align=center;" parent="1" vertex="1">
          <mxGeometry x="-516" y="-505" width="100" height="40" as="geometry" />
        </mxCell>
        <mxCell id="K_1ZKpOjZZYrOFly8--a-14" value="1" style="text;strokeColor=none;fillColor=none;html=1;fontSize=12;fontStyle=0;verticalAlign=middle;align=center;" parent="1" vertex="1">
          <mxGeometry x="-1083" y="-667" width="100" height="40" as="geometry" />
        </mxCell>
        <mxCell id="K_1ZKpOjZZYrOFly8--a-15" value="n" style="text;strokeColor=none;fillColor=none;html=1;fontSize=12;fontStyle=0;verticalAlign=middle;align=center;" parent="1" vertex="1">
          <mxGeometry x="-1096" y="-489" width="100" height="40" as="geometry" />
        </mxCell>
        <mxCell id="K_1ZKpOjZZYrOFly8--a-16" value="1" style="text;strokeColor=none;fillColor=none;html=1;fontSize=12;fontStyle=0;verticalAlign=middle;align=center;" parent="1" vertex="1">
          <mxGeometry x="-1001" y="-470" width="100" height="40" as="geometry" />
        </mxCell>
        <mxCell id="K_1ZKpOjZZYrOFly8--a-17" value="1" style="text;strokeColor=none;fillColor=none;html=1;fontSize=12;fontStyle=0;verticalAlign=middle;align=center;" parent="1" vertex="1">
          <mxGeometry x="-850" y="-615" width="100" height="40" as="geometry" />
        </mxCell>
        <mxCell id="K_1ZKpOjZZYrOFly8--a-18" value="1" style="text;strokeColor=none;fillColor=none;html=1;fontSize=12;fontStyle=0;verticalAlign=middle;align=center;" parent="1" vertex="1">
          <mxGeometry x="-618" y="-408" width="100" height="40" as="geometry" />
        </mxCell>
        <mxCell id="K_1ZKpOjZZYrOFly8--a-19" value="1" style="text;strokeColor=none;fillColor=none;html=1;fontSize=12;fontStyle=0;verticalAlign=middle;align=center;" parent="1" vertex="1">
          <mxGeometry x="-516" y="-256" width="100" height="40" as="geometry" />
        </mxCell>
        <mxCell id="K_1ZKpOjZZYrOFly8--a-26" value="1" style="text;strokeColor=none;fillColor=none;html=1;fontSize=12;fontStyle=0;verticalAlign=middle;align=center;" parent="1" vertex="1">
          <mxGeometry x="-1183" y="-862" width="100" height="40" as="geometry" />
        </mxCell>
        <mxCell id="K_1ZKpOjZZYrOFly8--a-27" value="1" style="text;strokeColor=none;fillColor=none;html=1;fontSize=12;fontStyle=0;verticalAlign=middle;align=center;" parent="1" vertex="1">
          <mxGeometry x="-317" y="-1013" width="100" height="40" as="geometry" />
        </mxCell>
        <mxCell id="K_1ZKpOjZZYrOFly8--a-28" value="" style="rounded=0;orthogonalLoop=1;jettySize=auto;html=1;endArrow=halfCircle;endFill=0;endSize=6;strokeWidth=1;sketch=0;fontSize=12;curved=1;entryX=0.319;entryY=0.81;entryDx=0;entryDy=0;entryPerimeter=0;" parent="1" edge="1">
          <mxGeometry relative="1" as="geometry">
            <mxPoint x="-978" y="-949" as="sourcePoint" />
            <mxPoint x="-943" y="-946" as="targetPoint" />
          </mxGeometry>
        </mxCell>
        <mxCell id="K_1ZKpOjZZYrOFly8--a-29" value="" style="ellipse;whiteSpace=wrap;html=1;align=center;aspect=fixed;fillColor=none;strokeColor=none;resizable=0;perimeter=centerPerimeter;rotatable=0;allowArrows=0;points=[];outlineConnect=1;" parent="1" vertex="1">
          <mxGeometry x="-1273" y="-1093" width="10" height="10" as="geometry" />
        </mxCell>
        <mxCell id="K_1ZKpOjZZYrOFly8--a-31" value="" style="rounded=0;orthogonalLoop=1;jettySize=auto;html=1;endArrow=halfCircle;endFill=0;endSize=6;strokeWidth=1;sketch=0;fontSize=12;curved=1;" parent="1" edge="1">
          <mxGeometry relative="1" as="geometry">
            <mxPoint x="-429" y="-965" as="sourcePoint" />
            <mxPoint x="-470" y="-981" as="targetPoint" />
          </mxGeometry>
        </mxCell>
        <mxCell id="K_1ZKpOjZZYrOFly8--a-32" value="" style="ellipse;whiteSpace=wrap;html=1;align=center;aspect=fixed;fillColor=none;strokeColor=none;resizable=0;perimeter=centerPerimeter;rotatable=0;allowArrows=0;points=[];outlineConnect=1;" parent="1" vertex="1">
          <mxGeometry x="-448" y="-979" width="10" height="10" as="geometry" />
        </mxCell>
        <mxCell id="K_1ZKpOjZZYrOFly8--a-33" value="1" style="text;strokeColor=none;fillColor=none;html=1;fontSize=12;fontStyle=0;verticalAlign=middle;align=center;" parent="1" vertex="1">
          <mxGeometry x="-239" y="-769" width="100" height="40" as="geometry" />
        </mxCell>
        <mxCell id="K_1ZKpOjZZYrOFly8--a-34" value="n" style="text;strokeColor=none;fillColor=none;html=1;fontSize=12;fontStyle=0;verticalAlign=middle;align=center;rotation=0;" parent="1" vertex="1">
          <mxGeometry x="-572" y="-822" width="100" height="40" as="geometry" />
        </mxCell>
        <mxCell id="K_1ZKpOjZZYrOFly8--a-35" value="m" style="text;strokeColor=none;fillColor=none;html=1;fontSize=12;fontStyle=0;verticalAlign=middle;align=center;rotation=0;" parent="1" vertex="1">
          <mxGeometry x="-1009" y="-822" width="100" height="40" as="geometry" />
        </mxCell>
        <mxCell id="K_1ZKpOjZZYrOFly8--a-36" value="" style="rounded=0;orthogonalLoop=1;jettySize=auto;html=1;endArrow=halfCircle;endFill=0;endSize=6;strokeWidth=1;sketch=0;fontSize=12;curved=1;" parent="1" edge="1">
          <mxGeometry relative="1" as="geometry">
            <mxPoint x="-699" y="-801" as="sourcePoint" />
            <mxPoint x="-699" y="-847" as="targetPoint" />
          </mxGeometry>
        </mxCell>
        <mxCell id="K_1ZKpOjZZYrOFly8--a-37" value="" style="ellipse;whiteSpace=wrap;html=1;align=center;aspect=fixed;fillColor=none;strokeColor=none;resizable=0;perimeter=centerPerimeter;rotatable=0;allowArrows=0;points=[];outlineConnect=1;" parent="1" vertex="1">
          <mxGeometry x="-401" y="-1063" width="10" height="10" as="geometry" />
        </mxCell>
        <mxCell id="K_1ZKpOjZZYrOFly8--a-38" value="" style="rounded=0;orthogonalLoop=1;jettySize=auto;html=1;endArrow=halfCircle;endFill=0;endSize=6;strokeWidth=1;sketch=0;fontSize=12;curved=1;" parent="1" edge="1">
          <mxGeometry relative="1" as="geometry">
            <mxPoint x="-582.52" y="-925" as="sourcePoint" />
            <mxPoint x="-624" y="-925" as="targetPoint" />
          </mxGeometry>
        </mxCell>
        <mxCell id="K_1ZKpOjZZYrOFly8--a-39" value="" style="rounded=0;orthogonalLoop=1;jettySize=auto;html=1;endArrow=halfCircle;endFill=0;endSize=6;strokeWidth=1;sketch=0;fontSize=12;curved=1;" parent="1" edge="1">
          <mxGeometry relative="1" as="geometry">
            <mxPoint x="-901" y="-906" as="sourcePoint" />
            <mxPoint x="-869" y="-906" as="targetPoint" />
          </mxGeometry>
        </mxCell>
        <mxCell id="K_1ZKpOjZZYrOFly8--a-40" value="n" style="text;strokeColor=none;fillColor=none;html=1;fontSize=12;fontStyle=0;verticalAlign=middle;align=center;rotation=0;" parent="1" vertex="1">
          <mxGeometry x="-884" y="-714" width="100" height="40" as="geometry" />
        </mxCell>
        <mxCell id="BxjsxsyBaetmEyTTX3Pv-2" value="n" style="text;strokeColor=none;fillColor=none;html=1;fontSize=12;fontStyle=0;verticalAlign=middle;align=center;rotation=-15;" parent="1" vertex="1">
          <mxGeometry x="-523" y="-884" width="100" height="40" as="geometry" />
        </mxCell>
        <mxCell id="2msbxIjYs5mI3vQhX9Ai-1" value="Quantity" style="ellipse;whiteSpace=wrap;html=1;" parent="1" vertex="1">
          <mxGeometry x="-73" y="-546" width="80" height="57" as="geometry" />
        </mxCell>
        <mxCell id="GRxb1nC7RFvwdMo0BrJ2-2" value="&lt;u&gt;Password&lt;/u&gt;" style="ellipse;whiteSpace=wrap;html=1;rounded=0;" vertex="1" parent="1">
          <mxGeometry x="-403" y="-1195" width="80" height="58" as="geometry" />
        </mxCell>
        <mxCell id="GRxb1nC7RFvwdMo0BrJ2-1" style="rounded=0;orthogonalLoop=1;jettySize=auto;html=1;entryX=0;entryY=1;entryDx=0;entryDy=0;" edge="1" parent="1" source="ySClAHIPyY229D9enXLK-11" target="GRxb1nC7RFvwdMo0BrJ2-2">
          <mxGeometry relative="1" as="geometry">
            <mxPoint x="-400" y="-1091" as="targetPoint" />
          </mxGeometry>
        </mxCell>
      </root>
    </mxGraphModel>
  </diagram>
</mxfile>
